<svg width="120" height="120" viewBox="0 0 120 120" fill="none" xmlns="http://www.w3.org/2000/svg">
  <rect width="120" height="120" rx="10" fill="#c5f3dc" />
  <path
    d="M25.38 94H2.61V91.39C3.51 90.91 4.56 90.49 5.76 90.13C6.96 89.77 8.37 89.47 9.99 89.23V35.86C8.79 35.62 7.56 35.32 6.3 34.96C5.04 34.54 3.81 34.09 2.61 33.61V31H62.01V33.61C60.87 34.21 59.67 34.69 58.41 35.05C57.15 35.35 55.89 35.62 54.63 35.86V89.23C57.03 89.53 59.49 90.25 62.01 91.39V94H39.24V91.39C40.56 90.55 42.81 89.83 45.99 89.23V35.68H18.63V89.23C20.97 89.71 23.22 90.43 25.38 91.39V94ZM87.4596 94H68.1096V91.75C68.9496 91.27 69.8796 90.88 70.8996 90.58C71.9196 90.22 72.9696 89.89 74.0496 89.59V53.5C72.9696 53.2 71.9196 52.9 70.8996 52.6C69.8796 52.24 68.9496 51.82 68.1096 51.34V49H87.4596V51.34C86.0796 52.18 84.3096 52.9 82.1496 53.5V69.25H102.13V53.5C100.03 53.14 98.2296 52.42 96.7296 51.34V49H116.17V51.34C114.55 52.36 112.57 53.08 110.23 53.5V89.59C111.31 89.83 112.36 90.1 113.38 90.4C114.4 90.7 115.33 91.15 116.17 91.75V94H96.7296V91.75C98.2296 90.67 100.03 89.95 102.13 89.59V73.21H82.1496V89.59C83.3496 89.83 84.3696 90.13 85.2096 90.49C86.0496 90.85 86.7996 91.27 87.4596 91.75V94Z"
    fill="#582B12" />
  <path d="M3 26L46.8704 12.0413C60.6808 7.64703 75.7756 10.5052 87.0236 19.6442L117 44"
    stroke="#582B12" stroke-width="3" />
  <line y1="105" x2="120" y2="105" stroke="#0A4D0D" stroke-width="8" />
  <circle cx="105.5" cy="16.5" r="7.5" fill="#FFFF00" />
</svg>